<?xml version="1.0" encoding="utf-8"?>
<!-- Generator: Adobe Illustrator 21.0.1, SVG Export Plug-In . SVG Version: 6.00 Build 0)  -->
<svg version="1.1" id="Layer_1" xmlns="http://www.w3.org/2000/svg" xmlns:xlink="http://www.w3.org/1999/xlink" x="0px"
	y="0px" viewBox="0 0 488 500" enable-background="new 0 0 488 500" xml:space="preserve">
	<path fill="#000000ff"
		d="M170.4,160.7c-3.5-4.3-7.5-8.5-10.6-13.2c-0.7-1.1,0.3-1.9,1.3-1c3.9,4,7.2,8.7,10.7,13.1
	c3.5,4.4,7,8.8,10.3,13.4c0.6,0.8,0,1.3-0.7,0.5C177.6,169.4,174,165,170.4,160.7z M145.3,251.3c1-0.1,1-0.9,0-0.9
	c-5.6-0.3-11.3-0.3-16.9-0.3c-5.6,0-11.4-0.4-16.9,0.2c-1.3,0.1-1.3,1.5,0,1.6c5.5,0.5,11.3,0,16.9-0.1
	C134,251.8,139.6,251.7,145.3,251.3z M125.4,309.2c5.2-2,10.2-4.9,15.2-7.4c5-2.5,10.1-5.1,15-7.9c0.9-0.5,0.5-1.2-0.4-0.8
	c-5.2,2.2-10.3,4.6-15.4,7.1c-5,2.4-10.4,4.6-15.1,7.5C123.5,308.5,124.1,309.7,125.4,309.2z M117.9,312.6
	c-5.9,1.6-11.6,4.8-17.1,7.5c-6.1,3-12.5,5.8-18.3,9.4c-1.2,0.7-0.2,2.6,1.1,2.1c6.4-2.5,12.4-6,18.5-9.1c5.5-2.8,11.4-5.4,16.2-9.2
	C118.7,313,118.4,312.4,117.9,312.6z M138.9,201.5c5.1,2.4,10.2,4.7,15.5,6.8c0.9,0.4,1.2-0.3,0.4-0.8c-4.9-2.7-10-5.2-15.1-7.6
	c-5-2.4-10.1-5.3-15.3-7.1c-1.2-0.4-1.8,0.8-0.7,1.5C128.5,197.1,133.9,199.2,138.9,201.5z M84.7,251c-6.8,0.1-13.7-0.2-20.5,0.5
	c-1.4,0.1-1.3,2.2,0.1,2.3c6.8,0.5,13.7,0,20.6-0.1c6.2-0.1,12.6,0.1,18.6-1.2c0.5-0.1,0.5-0.7,0-0.8C97.2,250.6,90.8,251,84.7,251z
	 M1.1,195.2c18.7,5.2,37.5,9.6,56.4,13.9l26.3,5.9c10.3,2.3,21,5.5,31.5,6.7c1.6,0.2,2-1.4,0.4-1.9c-9.4-3.2-19.9-4.9-29.6-7.2
	l-26.3-6.3c-19.3-4.7-38.6-9.5-58.1-13.8C0.5,192.1-0.2,194.9,1.1,195.2z M99.9,181.8c-6.2-2.9-12.3-6.1-18.7-8.5
	c-1.3-0.5-2.2,1.4-1,2.1c6,3.4,12.4,6,18.6,8.8c5.6,2.6,11.3,5.5,17.3,7c0.5,0.1,0.7-0.4,0.3-0.7
	C111.5,186.9,105.5,184.4,99.9,181.8z M93.7,132.2l21.1,16.7c8.3,6.6,16.6,14.1,25.5,19.7c1.3,0.9,2.3-0.4,1.2-1.5
	c-7.1-7-15.7-13.1-23.5-19.4L97,130.6C81.7,118,66.4,105.2,50.8,92.9c-1-0.8-2.8,1.4-1.8,2.3C63.5,107.9,78.6,120.1,93.7,132.2z
	 M376.6,249.7c1.3-0.1,1.3-1.5,0-1.6c-5.5-0.5-11.3,0-16.9,0.1c-5.6,0.1-11.3,0.2-16.9,0.6c-1,0.1-1,0.9,0,0.9
	c5.6,0.3,11.3,0.3,16.9,0.3C365.3,249.9,371.1,250.3,376.6,249.7z M405.5,170.6c1.2-0.7,0.2-2.6-1.1-2.1c-6.4,2.5-12.4,6-18.5,9.1
	c-5.5,2.8-11.4,5.4-16.2,9.2c-0.4,0.3-0.1,0.8,0.4,0.7c5.9-1.6,11.6-4.8,17.1-7.5C393.3,176.9,399.6,174.1,405.5,170.6z M84.4,288
	c10.3-2.4,21.3-4.2,31.3-7.6c1.5-0.5,1.2-2.1-0.4-1.9c-9.9,1.2-20,4.1-29.8,6.3L59,290.5c-19.5,4.1-39,8.1-58.4,12.6
	c-1.2,0.3-0.6,3.1,0.6,2.8c19.1-3.4,38-7.6,56.8-11.9L84.4,288z M348.3,199.7c5-2.4,10.4-4.6,15.1-7.5c1.1-0.7,0.5-1.9-0.7-1.4
	c-5.2,2-10.2,4.9-15.2,7.4c-5,2.5-10.1,5.1-15,7.9c-0.9,0.5-0.5,1.2,0.4,0.8C338.1,204.6,343.2,202.2,348.3,199.7z M333.2,292.5
	c4.9,2.7,10,5.2,15.1,7.6c5,2.4,10.1,5.3,15.3,7.1c1.2,0.4,1.8-0.8,0.7-1.5c-4.8-2.8-10.2-4.9-15.3-7.3c-5.1-2.4-10.2-4.7-15.5-6.8
	C332.7,291.3,332.4,292,333.2,292.5z M347.6,168.5c8.4-5.3,16.2-12.4,24.1-18.6l21.3-16.6c15.7-12.2,31.6-24.3,47-36.8
	c1-0.8-0.8-3-1.8-2.3c-15.7,11.4-30.9,23.3-46,35.4l-21,16.9c-8.2,6.6-17.4,13-24.9,20.5C345.3,168.1,346.3,169.4,347.6,168.5z
	 M353.1,107c-4.6,5-8.6,10.7-12.7,16.1c-3.7,4.9-7.9,9.8-10.7,15.3c-0.2,0.4,0.3,0.8,0.6,0.5c4.6-4,8.3-9.3,12.1-14.2
	c4.2-5.4,8.7-10.6,12.5-16.4C355.7,107.2,354.1,106,353.1,107z M216.4,137.6c1.3,5.5,2.7,11,4.3,16.4c0.3,1,1,0.8,0.9-0.2
	c-1-5.5-2.2-11-3.5-16.5c-1.2-5.4-2.2-11.2-4-16.4c-0.4-1.2-1.7-0.9-1.6,0.4C213.3,126.7,215.1,132.2,216.4,137.6z M159.7,78.6
	l11.8,24.2c4.6,9.5,8.8,19.9,14.4,28.8c0.8,1.3,2.3,0.6,1.7-0.8c-3.3-9.4-8.5-18.6-12.8-27.6l-11.4-24.5
	c-8.4-18.1-16.6-36.2-25.4-54c-0.6-1.1-3.2,0-2.6,1.2C143,43.7,151.2,61.2,159.7,78.6z M162.9,354.9c3.8-4,7.1-8.8,10.5-13.2
	c3.4-4.5,6.9-8.9,10.1-13.6c0.6-0.8-0.1-1.3-0.7-0.6c-3.7,4.2-7.3,8.6-10.8,13c-3.5,4.4-7.4,8.7-10.4,13.3
	C160.9,355,162,355.8,162.9,354.9z M273.7,112.4c2.4-5.6,3.4-12,4.8-18c1.5-6.7,3.2-13.4,4.1-20.2c0.2-1.4-1.9-1.9-2.3-0.5
	c-2,6.6-3.1,13.4-4.4,20.1c-1.2,6.1-2.9,12.2-3,18.4C272.9,112.7,273.5,112.9,273.7,112.4z M141.8,127.7c3.9,4.7,7.8,9.9,12.5,13.8
	c0.4,0.3,0.9-0.1,0.6-0.5c-2.9-5.4-7.2-10.2-11.1-15c-4.3-5.3-8.4-10.9-13.2-15.8c-1-1-2.6,0.3-1.8,1.5
	C132.8,117.4,137.4,122.5,141.8,127.7z M328.3,421.4l-11.8-24.2c-4.6-9.5-8.8-19.9-14.4-28.8c-0.8-1.3-2.3-0.6-1.7,0.8
	c3.3,9.4,8.5,18.6,12.8,27.6l11.4,24.5c8.4,18.1,16.6,36.2,25.4,54c0.6,1.1,3.2,0,2.6-1.2C345,456.3,336.8,438.8,328.3,421.4z
	 M346.2,372.3c-3.9-4.7-7.8-9.9-12.5-13.8c-0.4-0.3-0.9,0.1-0.6,0.5c2.9,5.4,7.2,10.2,11.1,15c4.3,5.3,8.4,10.9,13.2,15.8
	c1,1,2.6-0.3,1.8-1.5C355.2,382.6,350.6,377.5,346.2,372.3z M326.4,146.1c0.7-1.1-0.4-1.9-1.3-1c-3.8,4-7.1,8.8-10.5,13.2
	c-3.4,4.5-6.9,8.9-10.1,13.6c-0.6,0.8,0.1,1.3,0.7,0.6c3.7-4.2,7.3-8.6,10.8-13C319.5,155.1,323.4,150.8,326.4,146.1z M394.3,367.8
	l-21.1-16.7c-8.3-6.6-16.6-14.1-25.5-19.7c-1.3-0.9-2.3,0.4-1.2,1.5c7.1,7,15.7,13.1,23.5,19.4l20.9,17.1
	c15.4,12.6,30.6,25.4,46.3,37.7c1,0.8,2.8-1.4,1.8-2.3C424.5,392.1,409.4,379.9,394.3,367.8z M316.2,340.4
	c3.5,4.4,6.8,9.1,10.7,13.1c0.9,0.9,2,0.1,1.3-1c-3.1-4.6-7-8.9-10.6-13.2c-3.6-4.3-7.2-8.7-11-12.8c-0.7-0.7-1.3-0.3-0.7,0.5
	C309.1,331.6,312.6,336,316.2,340.4z M487,304.8c-18.7-5.2-37.5-9.6-56.4-13.9l-26.3-5.9c-10.3-2.3-21-5.5-31.5-6.7
	c-1.6-0.2-2,1.4-0.4,1.9c9.4,3.2,19.9,4.9,29.6,7.2l26.3,6.3c19.3,4.7,38.6,9.5,58.1,13.8C487.5,307.9,488.2,305.1,487,304.8z
	 M486.7,194.1c-19.1,3.4-38,7.6-56.8,11.9l-26.2,6.1c-10.3,2.4-21.3,4.2-31.3,7.6c-1.5,0.5-1.2,2.1,0.4,1.9c9.9-1.2,20-4.1,29.8-6.3
	l26.4-5.7c19.5-4.1,39-8.1,58.4-12.6C488.6,196.6,487.9,193.8,486.7,194.1z M140.4,331.5c-8.4,5.3-16.2,12.4-24.1,18.6l-21.3,16.6
	c-15.7,12.2-31.6,24.3-47,36.8c-1,0.8,0.8,3,1.8,2.3c15.7-11.4,30.9-23.3,46-35.4l21-16.9c8.2-6.6,17.4-13,24.9-20.5
	C142.7,331.9,141.7,330.6,140.4,331.5z M403.3,249c6.8-0.1,13.7,0.2,20.5-0.5c1.4-0.1,1.3-2.2-0.1-2.3c-6.8-0.5-13.7,0-20.6,0.1
	c-6.2,0.1-12.6-0.1-18.6,1.2c-0.5,0.1-0.5,0.7,0,0.8C390.8,249.4,397.2,249,403.3,249z M300.6,132.2c0.4,0.2,1,0,1.4-0.6
	c5.3-8.4,9.3-18.2,13.7-27.2l12.1-24.2c8.9-17.8,18-35.5,26.5-53.5c0.5-1.1-2-2.4-2.6-1.3c-9.2,17.1-17.7,34.4-26.2,51.9l-11.6,24.3
	c-4.6,9.5-10.1,19.3-13.6,29.2C300,131.5,300.2,132,300.6,132.2z M388.1,318.2c6.2,2.9,12.3,6.1,18.7,8.5c1.3,0.5,2.2-1.4,1-2.1
	c-6-3.4-12.4-6-18.6-8.8c-5.6-2.6-11.3-5.5-17.3-7c-0.5-0.1-0.7,0.4-0.3,0.7C376.5,313.1,382.5,315.6,388.1,318.2z M277.8,386.6
	c-0.2-0.4-0.8-0.3-0.8,0.2c0.3,6.1,2.1,12.3,3.5,18.3c1.6,6.7,2.9,13.4,5,19.9c0.4,1.3,2.5,0.9,2.3-0.5c-1.1-6.8-3-13.4-4.7-20
	C281.6,398.5,280.4,392.2,277.8,386.6z M222.3,346.4c-1.5,5.4-2.8,10.9-4,16.4c-1.2,5.4-2.9,11-3.5,16.5c-0.2,1.3,1.2,1.6,1.6,0.4
	c1.7-5.3,2.5-11,3.7-16.5c1.2-5.5,2.3-11,3.2-16.6C223.4,345.6,222.6,345.4,222.3,346.4z M214.3,387.6c-2.4,5.6-3.4,12-4.8,18
	c-1.5,6.7-3.2,13.4-4.1,20.2c-0.2,1.4,1.9,1.9,2.3,0.5c2-6.6,3.1-13.4,4.4-20.1c1.2-6.1,2.9-12.2,3-18.4
	C215.1,387.3,214.5,387.1,214.3,387.6z M187.4,367.8c-0.4-0.2-1,0-1.4,0.6c-5.3,8.4-9.3,18.2-13.7,27.2l-12.1,24.2
	c-8.9,17.8-18,35.5-26.5,53.5c-0.5,1.1,2,2.4,2.6,1.3c9.2-17.1,17.7-34.4,26.2-51.9l11.6-24.3c4.6-9.5,10.1-19.3,13.6-29.2
	C188,368.5,187.8,368,187.4,367.8z M134.9,393c4.6-5,8.6-10.7,12.7-16.1c3.7-4.9,7.9-9.8,10.7-15.3c0.2-0.4-0.3-0.8-0.6-0.5
	c-4.6,4-8.3,9.3-12.1,14.2c-4.2,5.4-8.7,10.6-12.5,16.4C132.3,392.8,133.9,394,134.9,393z M211,113.2c-0.3-6.1-2.1-12.3-3.5-18.3
	c-1.6-6.7-2.9-13.4-5-19.9c-0.4-1.3-2.5-0.9-2.3,0.5c1.1,6.8,3,13.4,4.7,20c1.5,6,2.7,12.3,5.3,17.9
	C210.4,113.8,211,113.7,211,113.2z M273.2,120.7c0.2-1.3-1.2-1.6-1.6-0.4c-1.7,5.3-2.5,11-3.7,16.5c-1.2,5.5-2.3,11-3.2,16.6
	c-0.2,1,0.6,1.2,0.9,0.2c1.5-5.4,2.8-10.9,4-16.4C270.9,131.8,272.6,126.2,273.2,120.7z M271.6,362.4c-1.3-5.5-2.7-11-4.3-16.4
	c-0.3-1-1-0.8-0.9,0.2c1,5.5,2.2,11,3.5,16.5c1.2,5.4,2.2,11.2,4,16.4c0.4,1.2,1.7,0.9,1.6-0.4C274.7,373.3,272.9,367.8,271.6,362.4
	z M243.4,0.9c-0.9,19.4-1,38.7-1,58.1l0.1,26.9c0,10.6-0.7,21.8,0.5,32.2c0.2,1.6,1.8,1.6,1.9,0c1.1-9.9,0.4-20.4,0.5-30.4l0.3-27
	c0.3-19.9,0.7-39.8,0.6-59.7C246.3-0.3,243.5-0.4,243.4,0.9z M245.1,381.8c-0.2-1.6-1.8-1.6-1.9,0c-1.1,9.9-0.4,20.4-0.5,30.4
	l-0.3,27c-0.3,19.9-0.7,39.8-0.6,59.7c0,1.3,2.8,1.3,2.9,0c0.9-19.4,1-38.7,1-58.1l-0.1-26.9C245.5,403.5,246.2,392.3,245.1,381.8z" />
</svg>