<?xml version="1.0" encoding="utf-8"?>
<!-- Generator: Adobe Illustrator 21.0.1, SVG Export Plug-In . SVG Version: 6.00 Build 0)  -->
<svg version="1.1" id="Layer_1" xmlns="http://www.w3.org/2000/svg" xmlns:xlink="http://www.w3.org/1999/xlink" x="0px"
	y="0px" viewBox="0 0 309.6 500" enable-background="new 0 0 309.6 500" xml:space="preserve">
	<path fill="#000000ff" d="M293.7,352.6c0.3,48.4,0,96.8-2.8,145.1c-0.2,3.1-5,3.1-4.8,0c0.7-11.5,1.2-23,1.6-34.5
	c1.7-47.4,1.4-94.9,0.9-142.3c-0.3-23.7-0.6-47.4-0.8-71.2c-0.2-20.4,0.2-40.9-0.4-61.3c-0.9-29.4-4.3-59.4-14.6-87.1
	c-9.6-25.8-26.3-48.7-50.7-62c-13.9-7.5-29.3-11.8-45-13.6c-16.4-1.9-33.3-2-49.6,0.7c-26.7,4.4-51.3,16.8-69.1,37.4
	C40.5,84.3,30.7,110.6,26,137c-3.1,16.9-3.7,33.9-4.1,51c-0.7,23.4-1,46.8-1.1,70.1c-0.2,44.1,0.4,88.1,1.1,132.1
	c0.6,35.8,1.5,71.6,1.5,107.3c0,3.1-4.8,3.1-4.8,0c0-7.8-0.1-15.6-0.1-23.4C18,435,17,395.8,16.4,356.5
	c-0.7-46.1-0.9-92.2-0.1-138.3c0.6-35.6,0.1-71.9,10.8-106.3c8-25.5,21.9-49.4,43-66.1c23-18.1,51.8-25.8,80.7-26.2
	c31.7-0.5,64.3,5.9,89.5,26.2c21.9,17.7,34.9,43.6,42.3,70.3c8.2,29.8,10,61.1,9.9,91.9C292.4,256.2,293.4,304.4,293.7,352.6z
	 M309.5,343.6c-0.4-50.8-1.2-101.6-1.3-152.4c-0.1-31.2-2.5-63-11.7-93c-8.5-27.9-23.5-53.9-47.2-71.6C221.1,5.6,185-0.5,150.6,0
	c-31.2,0.4-63,7.8-88.7,26.3C39.1,42.7,23.1,66.5,13.7,92.8c-12.3,34.3-12.3,70.7-13,106.7c-1,49.3-0.8,98.5,0,147.8
	c0.6,41.8,1.7,83.6,2.2,125.4c0.1,8.3,0.2,16.7,0.2,25c0,3.1,4.8,3.1,4.8,0c0-38.3-1-76.6-1.7-114.9c-0.9-47-1.5-94-1.2-140.9
	c0.2-24.8,0.6-49.5,1.5-74.3c0.6-16.7,1.7-33.2,5.2-49.6c5.8-27.2,17.4-53.6,37-73.8C69,23,96.4,11.1,125.2,6.8
	c18-2.7,36.6-2.5,54.7-0.6c17.1,1.9,34.1,6.1,49.6,13.9c26.2,13.2,45.2,35.9,56.4,62.8c11.7,28.1,15.8,58.9,17.1,89
	c0.9,20.5,0.4,41.1,0.5,61.6c0.2,25.3,0.6,50.6,0.9,75.9c0.6,50.4,1,100.9-0.9,151.3c-0.5,12.3-1,24.6-1.8,36.9
	c-0.2,3.1,4.6,3.1,4.8,0C309.5,446.4,309.9,395,309.5,343.6z" />
</svg>