<?xml version="1.0" encoding="utf-8"?>
<!-- Generator: Adobe Illustrator 21.0.1, SVG Export Plug-In . SVG Version: 6.00 Build 0)  -->
<svg version="1.1" id="Layer_1" xmlns="http://www.w3.org/2000/svg" xmlns:xlink="http://www.w3.org/1999/xlink" x="0px"
	y="0px" viewBox="0 0 257.7 500" enable-background="new 0 0 257.7 500" xml:space="preserve">
	<path fill="#000000ff" d="M223.4,401.7c0.6,32.4,1.1,64.9-0.1,97.4c0,1.2-1.9,1.2-1.9,0c0.3-7.3,0.5-14.6,0.6-21.8
	c0.5-32.3-0.2-64.6-0.9-96.9c-0.3-14.4-0.8-28.9-1-43.3c-0.3-19.8,0-39.6,0.4-59.4c0.4-19.5,0.9-39,0.9-58.5c0-16.1-0.9-32.3-4-48.2
	c-3.1-15.7-8.6-31-17.7-44.2c-8.6-12.4-20.4-22.3-34-28.8c-13.3-6.3-28-9.3-42.7-9.5c-14.2-0.1-28.8,2.1-42,7.4
	c-10.7,4.4-20.4,11-28,19.8c-7.3,8.3-12.6,18.1-16.3,28.5c-1.5,4.2-2.8,8.5-4,12.9c2.4-7.5,5.4-14.8,9.4-21.7
	c5.4-9.2,12.5-17.2,21.1-23.4c10-7.1,21.7-11.4,33.8-13.6c28-5.1,58.1,0,80.6,18.2c24.5,19.9,33.9,51.2,36.7,81.6
	c1.6,17.1,1.2,34.2,0.9,51.3c-0.3,19.6-0.8,39.1-1,58.7c-0.3,31.9,0.8,63.8,1.4,95.7c0.6,31.7,1.1,63.4-0.1,95c0,1.2-1.9,1.2-1.9,0
	c0.3-7,0.5-14,0.6-21c0.5-31.5-0.1-63.1-0.9-94.6c-0.3-13.9-0.7-27.8-0.9-41.8c-0.3-19.2,0-38.4,0.3-57.5c0.4-19,0.8-38,0.9-57
	c0-15.8-0.7-31.7-3.7-47.3c-2.9-15.3-8-30.3-16.6-43.2c-8.2-12.3-19.5-22.2-32.8-28.8c-12.8-6.3-27.1-9.3-41.4-9.4
	c-13.7-0.1-27.7,2.1-40.4,7.3C68.2,110,59,116.6,51.7,125.1c-7,8.1-12,17.8-15.6,27.8c-7.6,21.3-9.3,44.3-9.9,66.8
	c-0.1,5.2-0.2,10.4-0.3,15.6c0,6.6-0.1,13.2-0.1,19.8c-0.1,19.7-0.2,39.3-0.4,59c-0.2,30.8-0.3,61.7-0.5,92.5
	c-0.1,30.8-0.3,61.6-0.5,92.4c0,0.2,0,0.3-0.1,0.4c-0.2,0.3-0.5,0.5-0.9,0.5c-0.5,0-0.9-0.3-0.9-0.9c0-6.7,0.1-13.4,0.1-20.1
	c0.2-31.6,0.3-63.2,0.5-94.8c0.2-32.1,0.3-64.3,0.5-96.4c0.1-17.9,0.2-35.7,0.3-53.6c0-1.3,0-2.6,0-4c0-1.1,0-2.1,0-3.2
	c0.1-11.7,0.4-23.4,1.3-35c1.8-22.5,5.7-45.9,17.5-65.5c5.6-9.4,13-17.6,22-23.9c10.5-7.3,22.8-11.7,35.4-13.9
	c28.8-5.1,59.7-0.1,83.1,18.3c25.5,20.1,35.6,52,38.6,83.3c1.7,17.3,1.3,34.8,1,52.2c-0.3,20.1-0.8,40.1-1.1,60.2
	C221.6,335.6,222.7,368.6,223.4,401.7z M189.5,362.7c-0.3-24.7-0.8-49.4-0.4-74.1c0.3-19.3,0.5-38.6-0.4-57.8
	c-0.8-15.9-2.7-32.4-9.9-46.8c-11-21.8-33.8-34.1-57.6-35.8C99.1,146.7,75.6,154,61,171c-9.5,11-13.8,25.2-15.9,39.4
	c-1.6,10.8-2.1,21.7-2.2,32.7c-0.2,9.8-0.1,19.6-0.1,29.4c-0.1,24.8-0.3,49.6-0.4,74.4c-0.1,24.9-0.2,49.9-0.2,74.8
	c-0.1,22.3-0.1,44.5-0.2,66.8c0,3.6,0,7.1-0.1,10.7c0,0.6,0.5,0.9,0.9,0.9c0.5,0,0.9-0.3,0.9-0.9c0.1-19.9,0.2-39.9,0.2-59.8
	c0.1-25.7,0.2-51.4,0.2-77c0.1-21.1,0.1-42.1,0.3-63.2c0.1-9.3,0.1-18.5,0.1-27.8c0-6.7,0.1-13.3,0.1-20c0-2.4,0-4.8,0.1-7.2
	c0.3-16.3,1.3-32.9,6.8-48.4c3.8-10.8,10.7-20.2,20-26.9c8.7-6.3,19-10.1,29.5-11.6c21.7-3.1,45.2,3.7,59.9,20.4
	c10.3,11.6,14.7,26.8,16.6,41.9c2.2,17.1,2.1,34.5,2,51.7c-0.1,19.4-0.7,38.8-0.4,58.1c0.1,8,0.3,15.9,0.4,23.9
	c0.3,23.1,0.5,46.2,0.7,69.3c0.1,22.1,0.2,44.2-0.2,66.2c-0.1,3.5-0.2,7-0.3,10.5c0,1.2,1.8,1.2,1.9,0c0.8-19.9,0.6-39.8,0.6-59.7
	c0-24.5-0.3-49-0.6-73.5c-0.3-23.8-0.8-47.6-0.5-71.5c0.3-19.1,0.5-38.1-0.3-57.2c-0.7-15.4-2.2-31.2-8.6-45.5
	c-5.1-11.4-13.5-20.9-24.2-27.3c-9.4-5.7-20.1-8.8-31-9.7c-21.5-1.7-44.4,6.1-58.1,23.3c-2.6,3.2-4.7,6.7-6.5,10.4
	c0.1-0.2,0.2-0.5,0.3-0.7c8.6-21.4,29.8-34.3,52.1-37.1c22.1-2.8,46.1,3.5,61.8,19.9c10.8,11.3,15.9,26.3,18.1,41.5
	c1.2,7.9,1.6,16,2,24c0.4,9.6,0.5,19.3,0.5,28.9c-0.1,19.7-0.7,39.5-0.4,59.2c0.1,8.5,0.3,16.9,0.4,25.4c0.3,23.7,0.6,47.4,0.7,71.1
	c0.1,22.6,0.2,45.2-0.2,67.7c-0.1,3.6-0.2,7.3-0.3,10.9c-0.1,1.2,1.8,1.2,1.9,0c0.9-20.4,0.7-40.8,0.6-61.2
	C190,412.8,189.8,387.7,189.5,362.7z M257.1,261.5c0.5-40.7,1.4-81.5-1.5-122.1c-2.4-33.8-9.1-68.2-30.7-95.3
	c-17.8-22.4-42.9-37.5-71.1-42.3c-15.6-2.6-31.6-2.3-47.3,0C90.8,4.1,75.9,8.9,62.1,17.1C35.9,32.9,15.6,59,7.7,88.6
	c-5,19-5.8,39.1-6,58.6c0,1,0,1.9,0,2.9c0,1.4,0,2.8,0,4.2c-0.2,20.5,0.1,41.1,0,61.6c-0.2,42-0.5,84-0.7,126.1
	c-0.2,42-0.5,84-0.7,126.1c-0.1,10.3-0.1,20.7-0.2,31c0,0.6,0.5,0.9,0.9,0.9c0.5,0,0.9-0.3,0.9-0.9c0.3-42.1,0.5-84.2,0.8-126.3
	c0.3-42.1,0.5-84.2,0.8-126.3c0.1-21,0.4-41.9,0.3-62.9c0-10.7-0.2-21.5-0.2-32.2c0.1-7.3,0.3-14.5,0.9-21.8
	c1.3-17.5,3.9-35,11.3-51.1C22,64.7,31,52.3,41.9,41.9C53,31.4,66.2,23,80.6,17.8c14.9-5.3,31.4-7.3,47.2-7.2
	c28.7,0.2,56.3,10.1,77.2,30.1c11.1,10.6,20.1,23.3,26.3,37.4c6.9,15.7,10.5,32.6,12.6,49.5c2.1,17.1,2.8,34.3,3.2,51.4
	c0.5,20.5,0.5,41,0.3,61.5c-0.2,20.7-0.6,41.3-0.6,62c0,19.1,0.4,38.3,0.6,57.4c0.3,36.7-0.5,73.3-1.7,109.9
	c-0.3,9.8-0.7,19.5-1.1,29.3c0,1.2,1.8,1.2,1.9,0c1.5-38.4,2.7-76.8,2.8-115.2c0.1-18.1-0.2-36.2-0.5-54.3
	c-0.3-21.1-0.1-42.3,0.2-63.4c0.5-39.9,1.4-79.8-1.4-119.6c-2.3-33-8.4-67-29.2-93.7c-17.3-22.3-41.7-37.6-69.7-42.3
	c-15.2-2.6-30.7-2.2-45.9,0C87.5,12.8,73,17.6,59.7,25.8C37.3,39.6,19.5,61.3,10.5,86.1c1.6-5.4,3.5-10.6,5.9-15.7
	c6.6-14,16-26.6,27.4-37.1c11.5-10.6,25.1-19,39.9-24.2c15.4-5.3,32.2-7.3,48.4-7.2c29.3,0.2,57.6,10,79.2,30.1
	c11.5,10.7,20.9,23.6,27.4,37.9c7.2,15.9,11.1,33.1,13.3,50.4c2.2,17.3,2.9,34.8,3.4,52.2c0.6,21,0.5,42,0.3,63.1
	c-0.2,21-0.6,42-0.7,63.1c-0.1,19.7,0.5,39.3,0.6,58.9c0.3,37.3-0.5,74.6-1.8,111.9c-0.3,9.9-0.7,19.9-1.1,29.8c0,1.2,1.8,1.2,1.9,0
	c1.6-39.2,2.8-78.4,2.9-117.7c0.1-18.6-0.2-37.2-0.5-55.8C256.6,304.2,256.9,282.9,257.1,261.5z" />
</svg>