<?xml version="1.0" encoding="utf-8"?>
<!-- Generator: Adobe Illustrator 21.0.1, SVG Export Plug-In . SVG Version: 6.00 Build 0)  -->
<svg version="1.1" id="Layer_1" xmlns="http://www.w3.org/2000/svg" xmlns:xlink="http://www.w3.org/1999/xlink" x="0px" y="0px"
	 viewBox="0 0 500 500" enable-background="new 0 0 500 500" xml:space="preserve">
<path fill="#E4E5DE" d="M250,0C112.1,0,0,112.1,0,250c0,137.9,112.1,250,250,250c137.9,0,250-112.1,250-250C500,112.1,387.9,0,250,0
	z M250,495C114.9,495,5,385.1,5,250C5,153.3,64.1,63.7,152.7,25.2C190.3,8.9,229,4.3,269.5,5.8c-1.5,0-3.1,0-4.6,0
	c5.1,0.5,10.1,0.9,15.2,1.4c-13.5-1.3-32.1,4.9-44.7,9c-18.9,6.2-36.7,15.1-53.3,25.9c-33.3,21.6-60.7,51.9-79.2,87
	c-38.1,72.3-28.8,162.7,15,230.3c31.9,49.2,83.4,82.2,140.2,95c49.8,11.3,104.9,6.6,149.3-19.8C369.4,473.4,302.5,495,250,495z
	 M399.6,432.6c-11.1,6.2-23.1,10.9-35.3,14.3c-24.4,6.8-50,8.5-75.2,6.5c-47.7-3.8-93.9-23.4-129.9-54.9
	c-65-56.8-90.3-153.9-64.1-235.6C111,113.4,146.4,71.2,190,43.4c17.3-11,36-20.1,55.7-26.2c9.4-2.9,19.4-5.8,29.3-6.7
	c49-4.2,99.7,23.3,135.9,54.8c36.9,32.2,63.8,75.3,76.2,122.7c5.3,20.2,7.9,41.1,7.9,62c0,34-7.1,67.9-20.9,99
	C457.2,387,435.9,412.4,399.6,432.6z"/>
</svg>
