<?xml version="1.0" encoding="utf-8"?>
<!-- Generator: Adobe Illustrator 21.0.1, SVG Export Plug-In . SVG Version: 6.00 Build 0)  -->
<svg version="1.1" id="Layer_1" xmlns="http://www.w3.org/2000/svg" xmlns:xlink="http://www.w3.org/1999/xlink" x="0px" y="0px"
	 viewBox="0 0 232.4 500" enable-background="new 0 0 232.4 500" xml:space="preserve">
<path fill="#E4E5DE" d="M91,133.2c12.2-2.2,25.1-7.2,30.3-18.1c0.7-1.5,1.5,1.1,1.3,1.8c-1.6,5.8-6.4,10.5-12.1,13.5
	c-3.9,2-8.1,3.5-12.3,4.7c-3.2,0.9-7.1,2.4-10.6,1.8c-11.2-1.7-23.6-10.6-24.3-21.6c0-0.6,0.6-1.2,0.9-0.4
	c2.1,5.4,5.1,10.1,10.5,13.4C79.3,131.2,85.4,134.2,91,133.2z M162.1,61.4c13.2,3.1,20.2,11.7,24,23.3c6.5,20,5.8,42.1,10.6,62.8
	c0.6-0.1,1.3-0.2,2-0.2c-1.9-8.5-2.7-17.4-4-25.9c-2-12.3-3.3-24.9-6.7-36.8c-2.5-8.5-6.7-16.6-14.5-21.8
	c-11-7.3-30.6-3.9-36.4-17.4c-0.5-1.2-1,0.4-0.8,1C139.6,57,151.9,59,162.1,61.4z M86.7,104c-1.1,1.3-0.5,3.9,0.4,5.2
	c1.2,1.8,3.3,2.4,5.4,1.5c0.9-0.4,0.7-2.7-0.1-3.1c-0.6-0.4-1.1-0.5-1.8-0.6c-0.6-0.1-1.1-0.1-1.7-0.4c-0.5-0.2-0.8-0.5-1.1-0.8
	c0-0.1-0.1-0.3-0.1,0c0,0-0.1-1,0-0.5C87.7,104.8,87.4,103.2,86.7,104z M51.3,38.9c5.7-0.9,10.6-3.7,16.4-4.2c4.7-0.4,9-0.5,13.4-2
	c4.5-1.5,8.3-4.4,11.6-7.5c6.3-5.9,11.8-15.3,13.8-23.4c0.1-0.3-0.1-2.4-0.7-1.6c-2.9,3.8-4.3,8.7-6.8,12.8
	c-2.6,4.3-5.9,8.3-10,11.5c-3.8,3.1-8.5,5.2-13.4,6c-5.3,0.9-10.3,0.6-15.5,2.2c-5.7,1.7-10.6,3.4-16.9,2.9c-5-0.5-9.8-0.5-14,2.4
	c-3.9,2.7-6.1,6.4-9.3,9.7c-1.2,1.2-2.1,2.7-3.4,3.8c-8.9,7.2-7.7,23-6.8,33.4c1.1,14.8-1.6,28.9-4.9,43.2
	C3,135.5,1.3,142.9,0,150.3c0.7,0.1,1.5,0.2,2.3,0.5c0.9-5.2,2-10.3,3.2-15.4c2.9-13.2,5.9-26.3,6.4-39.8c0.3-6.9-0.6-13.8-0.7-20.7
	c0-4.9,0-10,1.7-14.7c1.8-4.9,6.1-8,9.6-11.7c3.5-3.8,5.7-7.4,11-9.3C38.9,37.3,45.5,39.9,51.3,38.9z M132.4,57.1
	c-2.2-4-0.6-7.7,0.4-11.7c0.8-3.3,1.5-6.5,2.2-9.8c0.1-0.3-0.2-1-0.4-0.4c-1.6,4.9-3.8,9.9-4.7,15c-0.5,3.1-0.7,6.3,1.8,8.7
	C132.5,59.7,132.6,57.5,132.4,57.1z M154.3,206c-1.9-1.4-5.1-2.3-5.5-4.8c-0.1-0.6-0.7-1-1-0.2c-1.2,3.5,2.5,7.3,6.1,7.9
	C155,209,154.9,206.4,154.3,206z M145,244.7c11.9,5.6,25.8,0.1,31.4-11.3c0.3-0.5-0.1-2.6-0.8-1.5c-6.4,10.4-18.6,14.3-30.3,11
	C144.5,242.7,144.4,244.5,145,244.7z M230.7,285.6c-2.5-20.2-8.5-39.8-17.3-58.2c-4-8.3-8.6-16.3-14.5-23.5
	c-6.2-7.7-14.1-12.6-22.8-17.7c-4.6-2.7-8.3-6.4-11.1-10.6c-1.8-2.7-0.3-6.8,0.1-9.7c0.2-2,0.4-4,0.4-6c0.2-7.3-0.6-14.5-0.8-21.7
	c4.6-3.4,8.3-8.9,10.7-12.9c3.9-6.4,3.8-12.8,0.1-19c-2.1-3.7-5.6-6.7-9-9.3c-3.3-2.5-1.7-13.4-1.7-17.3c0-0.5-0.5-0.7-0.5-0.1
	c-0.3,3.6-0.6,7.2-0.8,10.8c-0.1,2.4-0.5,5,0.8,7.2c1.5,2.6,4.9,4.4,7,6.5c3,3,5.1,6.5,5.5,10.4c-0.1-0.3-0.4-0.6-0.7-0.3
	c-0.8,0.6-1.2,1.4-2.2,1.7c-1,0.3-2.7,0.2-3.1-0.9c-0.1-0.3-0.4-0.9-0.8-0.6c-0.6,0.3-0.5,1.3-0.4,1.8c0.3,2,1.8,3.8,4.2,3.8
	c1.6,0,2.5-1.1,3-2.3c-0.2,1-0.5,2.1-0.9,3.1c-3.1,7-10.4,15.3-18.7,16.9c-4.4,0.8-8.4-1.9-11.9-3.8c-3.7-2-6.9-4.6-10.4-6.9
	c-1.3-0.8-1.4,2.9-0.7,3.5c5.4,5.1,14.8,11.9,23.1,11c2.2-0.2,4.3-1.1,6.2-2.3c-0.4,6.1,0.3,12.2,0.3,18.4c0,7.4-4,15.8,1,22.4
	c5.7,7.5,13.5,11,21.4,16.4c9.2,6.3,15.6,15.4,20.8,24.5c10.6,18.4,17.3,38.8,20.7,59.6c1.8,10.5,2.6,21.2,2.6,32
	c0.1,18.4-2.9,36.8-6.9,55c-2,8.9-4.3,17.7-6.7,26.5c-2.2,7.7-4.5,15.3-6.8,22.9c-1.8,6-4.2,12-5.7,18.1
	c-1.7-14.3-4.9-28.5-7.9-42.4c-5-23.3-10.6-46.5-17.6-69.2c-2.9-9.6-7.7-16.9-15.9-23.1c-8.7-6.6-19.3-13.2-30-16.6
	c-0.7-0.2-0.6,1.4-0.2,1.7c8.4,5.8,17.5,10.5,26,16.2c9.3,6.3,15,13.3,18.4,23.9c6.3,19.8,11.3,40.1,15.9,60.4
	c4.1,18,8.4,36.4,10.1,54.9c0,0.2,0,0.4,0.1,0.6c0.3,3,0.4,6,0.6,9c0.4,11.1-1,20.9-8.3,29.7c-5.7,6.9-13.5,11.9-20.9,16.6
	c-1.1,0.7-0.6,4.2,0.6,3.5c14.6-9.3,29-20.2,30.1-39.4c0.4-6.8-1.7-14.9,0.7-21.4c2.5-6.6,4-13.5,6.1-20.2c2.4-8.1,4.8-16.2,7-24.4
	c2.2-8.2,4.1-16.4,5.9-24.6c1.9-9,3.7-17.9,5.5-26.9c1.9-9.1,2-18.3,2.1-27.4C232.5,305.4,231.9,295.4,230.7,285.6z M117.9,395
	c-16.1-23.4-31.6-47.7-42.9-74.3c-5.6-13.2-9.8-27.1-12.1-41.1c-2.4-14.7-1.5-29.1,0.1-43.6c1.3-12.4,2.6-25.3-0.7-37.6
	c-3.3-12.2-11.4-22.7-15.9-34.7c-1.1-3-0.5-5.9-1-8.9c0,0.1-1.7,1.6-1.9,1.9c-0.5,0.8-0.7,1.6-0.5,2.5c0.2,1.4,1,2.9,1.5,4.3
	c1.3,3.2,2.6,6.5,4.2,9.6c1.9,3.9,4,7.6,6,11.4c7.5,14.3,8.5,28.4,7.1,43.7c-1.3,13.5-3.1,26.7-2.1,40.4c0.9,12.9,4,25.7,8,38.2
	c8.7,26.5,23.1,50.8,37.9,74c7.5,11.8,15,23.7,22.9,35.2c3.4,4.9,7.1,9.5,11.2,13.9c5.3,5.6,12.4,13,8.9,21.5
	c-0.6,1.4,0.6,5.9,1.8,3.4c4.8-9.9-0.7-19.8-7.3-27.1C133.5,417.4,125.8,406.5,117.9,395z"/>
</svg>
