<?xml version="1.0" encoding="utf-8"?>
<!-- Generator: Adobe Illustrator 21.0.1, SVG Export Plug-In . SVG Version: 6.00 Build 0)  -->
<svg version="1.1" id="Layer_1" xmlns="http://www.w3.org/2000/svg" xmlns:xlink="http://www.w3.org/1999/xlink" x="0px"
	y="0px" viewBox="0 0 320.6 500" enable-background="new 0 0 320.6 500" xml:space="preserve">
	<path fill="#000000ff" d="M320.5,246c-0.1-21.1-0.5-42.2-1.1-63.3c-0.5-17.3-1.9-34.3-5.6-51.2c-7.2-32.3-21.7-63.8-44.9-87.7
	c-24.7-25.4-58.5-40.4-93.7-43.2C139.5-2.3,103,7.3,73.8,28.1c-27.3,19.5-47.9,47.3-59.3,78.7C1.9,141.6,0,179.1,0,215.7
	c0,41,1,82.1,1.6,123.1c0.7,42.2,0.8,84.3,1.3,126.5c0.1,5.5,0.1,11,0.2,16.5c0,2.8-0.1,17.6,0.1,17.6c0,0,41.3,0.5,61.8,0.5
	c20.6,0,41.2,0,61.8,0c40.9,0,81.8,0,122.7,0c11.6,0,23.2,0,34.9,0c10.6,0,21.3,0.4,31.9-0.4c0.6,0.2,2.4-0.2,2.4-0.8
	c0-0.1,0-0.2,0-0.3c0-0.3,0-0.6,0-0.9c0-0.1,0-0.3,0.1-0.5c0-41.7,0.5-83.5,1-125.2C320.4,329.9,320.8,287.9,320.5,246z
	 M317.4,344.5c-0.5,41.2-1.2,82.3-1.5,123.5c-0.1,9.8-0.1,19.6-0.1,29.3c-9-0.6-18.1-0.4-27.2-0.4c-10.4,0-20.8,0-31.1,0l-61.8,0
	c-40.9,0-81.8,0-122.7,0c-11.6,0-23.2,0-34.9,0c-9.7,0-27.6,0.4-33.2,0.5C4.7,456.1,4,413,3.4,371.8c-0.7-41.5-1-83-1.4-124.5
	C1.6,210.5,1,173.2,8.5,137c3.7-17.6,9.2-34.9,17.7-50.9c7.7-14.6,17.8-27.8,29.7-39.3c25-24,57.8-39.5,92.4-42.9
	c35.8-3.5,72.5,5.9,101.7,27c27.3,19.8,45.8,49.5,56.1,81.2c5.2,16.1,8.5,32.7,9.9,49.5c1.7,19.4,1.5,39.1,1.7,58.6
	C318.2,261.8,317.9,303.1,317.4,344.5z M307.7,187.8c-0.5-16.7-1.6-33.2-5-49.5c-6.5-30.7-19.7-60.7-41.3-83.9
	c-22.7-24.3-54.3-38.9-87.3-41.6c-33.5-2.7-67.8,6.8-94.8,26.9c-25.5,19-44.3,45.8-54.6,75.8C13.4,148.5,11.8,184,11.9,218.7
	c0,38.9,0.9,77.8,1.5,116.7c0.6,35.7,0.7,71.5,1,107.2c0,0,0,0.1,0,0.1c0,4.1,0.1,8.3,0.1,12.4c0.1,10.7,0.3,21.4,0.3,32
	c0,0,38.1,0.5,57.1,0.5c19,0,38.1,0,57.1,0c38.1,0,76.2,0,114.2,0c10.5,0,21.1,0,31.6,0c10.4,0,21,0.5,31.4-0.5c0.1,0,0.2,0,0.3,0
	c0.2-0.2,0.4-0.6,0.4-1c0-39.8,0.5-79.5,0.9-119.3c0.5-39.7,0.9-79.5,0.6-119.2C308.5,227.7,308.2,207.7,307.7,187.8z M15.1,366.2
	c-0.6-39.1-0.9-78.3-1.3-117.4c-0.3-34.9-1-70.2,5.7-104.6c6.3-32.3,19.7-62.7,43.1-86.2c23-23.1,53.5-38.4,86.1-41.7
	c33.6-3.4,67.9,5.7,94.9,26c25.5,19.2,42.4,47.8,51.8,78c4.7,15.2,7.6,31,8.9,46.9c1.3,16.7,1.3,33.6,1.5,50.4
	c-4-0.4-9.4-0.1-12.9-0.2c-4.3,0-8.6,0-12.9,0c-4.3,0-8.6,0-12.9,0c-2.1,0-4.2-0.1-6.3-0.1c-1.1,0-2.2,0.1-3.2,0.2
	c-0.7,0.1-2.2,0-2.8,0.5c-1.2,1-0.7,4.5-0.7,5.9c-0.1,2.3,0.1,4.6,0.1,7c0.1,5.1,0.2,10.3,0.3,15.4c0.1,5,0.2,10,0.3,15
	c0,2.5,0.1,5.1,0.2,7.6c0.1,1.6-0.1,3.4-1.9,4c-1.1,0.3-2.4,0.1-3.5,0c-1.4,0-2.9-0.1-4.3-0.1c-5.8-0.1-11.6,0-17.4,0
	c-4.6,0-9.1-0.1-13.7-0.1c-2.5,0-5.1,0-7.6,0c-1,0-2.9,0.2-3.9,0.3c-0.5,0-0.9,0.1-1.3,0.3c-0.8,0.3-0.8,0.8-0.8,1.6
	c-0.1,2.3-0.2,4.5-0.2,6.8c-0.1,2.4-0.1,4.9-0.1,7.3c0,4.9-0.1,9.8-0.1,14.7c0,4.8,0,9.5,0,14.3c0,2-0.1,3.9-0.1,5.9c0,1,0,2,0,3
	c0,1-0.1,2.8-0.5,3.3c-0.6,0.8-3.3,0.5-4.6,0.5c-4.2-0.1-8.4-0.2-12.5-0.3c-4.5,0-9,0-13.4,0c-5.4,0-10.8,0-16.2,0
	c-2.6,0-5.2,0-7.7,0.1c-1.4,0-2.7,0.1-4.1,0.3c-0.7,0.1-2.4,0.2-2.5,1.1c-0.1,1,0,2.1,0,3.1c0,2.1,0,4.2,0,6.3c0,4.2,0,8.4,0,12.6
	c0,2.2,0,4.4,0,6.5c0,5.6,0.2,11.3,0,16.9c-0.1,1.8-0.2,3.6-0.3,5.4c-0.1,1.1,0,2.2,0,3.4c0,0.5,0.1,1.2,0,1.7
	c-0.2,1.1-2,0.6-2.8,0.5c-1-0.1-2.1-0.2-3.1-0.2c-2.1-0.1-4.2-0.1-6.3-0.1c-4.2-0.1-8.4-0.1-12.6-0.1c-2.2,0-4.4,0-6.7,0
	c-5.3,0-10.5,0-15.8,0c-2.8,0-5.6,0-8.4,0c-1.5,0-3-0.1-4.5,0.1c-1.4,0.1-3.4-0.1-3.6,1.7c-0.3,2.9-0.3,5.9-0.4,8.8
	c-0.2,5.8-0.1,11.6-0.2,17.5c0,4.4,0,8.8,0,13.1c0,3.7-0.1,7.5,0.1,11.2c0.1,0.9-0.6,1.1-1.5,1.1c-9.1-0.5-18.1,0.1-27.2,0.1
	c-5,0-10,0-15,0c-2.5,0-5.1,0-7.6,0.1c-2.1,0-4.2-0.1-6.2,0.3C15.9,416.4,15.5,391,15.1,366.2z M305.6,340.7
	c-0.5,39-1.1,77.9-1.4,116.9c-0.1,9.1-0.1,18.2-0.1,27.3c-8.4-0.6-17-0.4-25.4-0.4c-9.4,0-18.9,0-28.3,0c-19,0-38.1,0-57.1,0
	c-38.1,0-76.2,0-114.2,0c-10.5,0-21.1,0-31.6,0c-9.1,0-25.7,0.4-30.9,0.5c-0.1-13.7-0.2-27.6-0.3-41.5c1.9,0.3,3.9,0.2,5.8,0.2
	c2.6,0,5.1,0,7.7,0.1c5.2,0,10.3,0,15.5,0c5,0,10,0.1,15.1,0c2.6,0,5.1-0.1,7.7-0.2c1.3,0,2.5-0.1,3.8-0.2c0.8,0,4,0.2,4.4-0.3
	c0.2-0.2,0.2-0.5,0.2-0.8c0.2-1.2,0.2-2.6,0.2-3.8c0-3.2-0.1-6.4-0.1-9.7c0-4.4,0-8.8,0-13.1c0-4.3,0-8.6-0.1-12.8
	c-0.1-4.3,0-8.5,0.2-12.8c0.9-0.2,1.4-0.1,2.3,0c1.1,0,2.2,0,3.2,0c2.8,0,5.6,0,8.4,0c5.4,0,10.8,0,16.3,0c8.3,0,16.7,0,25-0.2
	c1.6,0,3.1-0.1,4.7-0.1c1.1,0,3.3,0.6,3.8-0.7c0.3-0.8,0.2-1.9,0.2-2.7c0-1.1,0-2.1-0.1-3.2c-0.1-2-0.5-39.8-0.5-48.2
	c0-0.6,0-1.3,0.4-1.8c0.5-0.6,1.3-0.6,2-0.5c0.8,0,1.6,0,2.5,0c2.6,0,5.1,0.1,7.7,0.1c5.5,0,11.1,0,16.6,0c8.3,0,16.7,0,25-0.3
	c1.3,0,6.2-0.1,7.3-0.1c0.9,0,1.1-0.8,1.2-1.6c0.2-1.4,0.3-2.7,0.3-4.1c0.1-2.8,0-5.6,0-8.3c0-4.9,0-9.8,0-14.7
	c0-4.8,0-9.5-0.1-14.3c0-2.4,0-4.9-0.1-7.3c0-1.2,0-2.4,0-3.6c0-0.8-0.1-1.7,0.5-2.3c0.9-1,2.6-0.8,3.8-0.8c3.4,0,6.9,0,10.3,0
	c2.3,0,4.6,0,6.8,0c7.1-0.2,14.2,0,21.4-0.1c3.1,0,6.2-0.1,9.4-0.4c1.1-0.1,1.7,0,2-1.1c0.3-0.8,0.3-1.7,0.3-2.6c0-0.6,0-1.1,0-1.7
	c0.1-2.6,0-5.3,0-7.9c-0.1-5.1-0.2-10.3-0.4-15.4c-0.1-5-0.3-10-0.4-15c0-2.1,0-4.3-0.1-6.4c-0.1-2.8,2.1-5.1,4.9-5.1
	c2,0,4-0.1,5.9-0.1c4.3,0,8.6,0,12.9,0c4.3,0,8.6,0,12.9,0c3.5,0,9,0.2,12.9-0.2c0,1.3,0,2.5,0,3.8
	C306.3,262.4,306,301.6,305.6,340.7z" />
</svg>