<?xml version="1.0" encoding="utf-8"?>
<!-- Generator: Adobe Illustrator 21.0.1, SVG Export Plug-In . SVG Version: 6.00 Build 0)  -->
<svg version="1.1" id="Layer_1" xmlns="http://www.w3.org/2000/svg" xmlns:xlink="http://www.w3.org/1999/xlink" x="0px" y="0px"
	 viewBox="0 0 334.6 500" enable-background="new 0 0 334.6 500" xml:space="preserve">
<path fill="#E4E5DE" d="M334.5,247.3c-0.1-20.9-0.4-41.9-1-62.8c-0.5-17.5-1.7-34.9-5.3-52.1c-6.8-32.3-20.7-63.9-43.4-88.2
	C261,18.7,227.7,3.3,193,0.5c-7.7-0.6-15.4-0.6-23.1,0c-35-2.7-70.8,7.4-99,28.3c-26.8,19.9-46.6,48.2-57.4,79.7
	C1.6,143.2,0,180.5,0,217c0.1,40.9,1,81.8,1.6,122.7c0.7,42,0.7,83.9,1.2,125.9c0.1,9.8-0.9,33.6,0.4,33.7
	c14.1,0.8,28.3,0.8,42.5,0.7c13.4,0.2,26.7-0.1,40.1-0.1c20,0,40,0,60.1,0c40,0,80.1,0,120.1,0c4,0,8,0,12,0c7.5,0,15.1,0.2,22.6,0
	c5.7,0,11.3,0.2,17,0.3c4.4,0.1,8.3-0.1,13.4-0.3c1.5-0.1,1.4-0.2,1.7-1.2c0.5-1.8,0.1-4.4,0.1-6.3c0.1-9.4,0.2-18.8,0.3-28.1
	c0.1-13.1,0.3-26.3,0.4-39.4c0.1-13.1,0.2-26.2,0.4-39.4c0-4.2,0.1-8.4,0.1-12.6C334.4,330.9,334.8,289.1,334.5,247.3z M5.5,497
	C5.3,486.5,4,410.5,3.4,372.1c-0.7-41.1-1-82.3-1.3-123.4c-0.3-36.7-1-73.8,6-110c6.6-33.9,20.7-65.9,45.3-90.6
	C77.6,23.7,109.7,7.7,144,4.2c1.2-0.1,2.3-0.2,3.5-0.3c-19.5,4.5-38,12.9-54.1,24.9C66.6,48.7,46.8,76.9,36,108.4
	C24.1,143.2,22.4,180.5,22.5,217c0.1,40.9,1,81.8,1.6,122.7c0.7,42,0.7,83.9,1.2,125.9c0.1,10.2,0.2,20.3,0.4,30.5
	c0,0.2,0.1,0.4,0.2,0.5C19.1,496.6,12.3,496.6,5.5,497z M307.4,468.2c-0.1,9.4-0.1,18.9-0.1,28.3c-1.4,0-2.9,0-4.3,0
	c-0.8,0-1.7,0-2.5,0c-6.1-0.2-12.2,0-18.3,0c-3,0-6,0-9,0c-20,0-40,0-60.1,0c-40,0-80.1,0-120.1,0c-1.5,0-3,0-4.6,0
	c-6,0-11.9,0-17.9,0c-11.1,0-22.1,0-33.2,0c-3.4,0-6.8,0-10.2,0c0.1-0.1,0.2-0.3,0.2-0.5c-0.2-41.3-0.8-82.6-1.5-123.9
	c0-3-0.1-6.1-0.1-9.1c0.1,0,0.2,0,0.3-0.1c17-7.6,37.2,1.7,49.7,13.6c13.6,13,24.9,29.2,43.4,35.6c19.3,6.7,40.3,3.4,60.2,5.4
	c11.8,1.2,23.3,3.8,34.8,6.7c11.2,2.8,22.4,5.8,33.6,8.7c12.9,3.3,25.7,6.6,38.6,10c4.5,1.2,8.5,2.5,12.6,4.9c3,1.8,6.6,4,8.7,7
	C307.5,459.3,307.5,463.7,307.4,468.2z M307.6,452.4c-1.3-1.5-3-2.7-4.6-3.8c-3.1-2.2-6.6-4.1-10.2-5.4c-4.8-1.8-10-2.8-15-4
	c-5.8-1.5-11.6-3-17.4-4.5c-9.9-2.6-19.9-5.3-29.8-7.9c11.3,1.5,22.6,0.6,33.5-3.3c9.9-3.6,18.8-9.2,28.6-12.8
	c5.1-1.8,10.1-2.6,15.4-2.7C307.9,422.7,307.7,437.6,307.6,452.4z M308.1,407.2c-8.9-0.8-17.7,3.2-25.5,6.9
	c-10.2,4.9-20.3,9.8-31.5,11.6c-8.4,1.4-17,0.9-25.4-0.7c-0.2,0-0.4,0.1-0.5,0.2c-0.2,0-0.4-0.1-0.5-0.1
	c-11.2-2.9-22.5-5.9-33.9-7.9c-11-1.9-21.9-2.4-33-2.5c-10.7-0.1-21.6-0.2-32.1-2.8c-0.8-0.2-1.5-0.4-2.3-0.6
	c9.9,2.1,20.2,1.5,30.3,0.4c15.6-1.7,31.1-3.3,46.8-2.8c8.1,0.2,16.1,0.9,24.1,2c7.1,0.9,14.2,1.9,21.3,0.2
	c10.9-2.5,20.2-9.5,29.2-15.6c10.1-6.9,20.7-13.8,33.3-13.3C308.3,390.6,308.2,398.9,308.1,407.2z M308.4,380.6
	c-10.1-1-19.8,4.1-28,9.4c-9.5,6.1-18.5,13.5-29,17.7c-6.1,2.4-12.4,3.1-19,2.5c-8-0.7-15.9-2-23.9-2.5c-15.8-1-31.5-0.3-47.2,1.5
	c-16.1,1.9-33.1,4.1-48.6-2.2c-0.1,0-0.2,0-0.3,0c-5-2.6-9.6-6-13.8-9.9c-2.8-2.6-5.5-5.3-8.1-8.1c5.8,2,12.1,3,18.1,3.7
	c8.3,0.9,16.8,1,25.1,0.8c16.7-0.3,33.6-1.8,50.3,0c8.9,1,17.6,3.8,26.6,4.1c6.6,0.2,13.2-0.9,19.5-2.9
	c13.1-4.3,24.7-12.2,36.2-19.8c13.2-8.7,26.8-17.6,42.4-21.1C308.6,362.8,308.5,371.7,308.4,380.6z M308.9,345.3
	c0,2.2-0.1,4.4-0.1,6.6c-27.3,6.2-47.3,27.9-72.5,38.7c-6.3,2.7-13,4.6-19.9,5.1c-8.8,0.6-17.2-1.7-25.8-3.2
	c-16-2.8-32.3-1.8-48.4-1.3c-9.4,0.3-18.9,0.5-28.3-0.2c-8.9-0.6-17.4-2.3-26-4.9c-3-3.2-5.9-6.4-9-9.5c5.7,1.7,11.6,2.8,17.4,3.6
	c7.7,1.1,15.6,1.7,23.4,1.8c7.6,0.1,15.2-0.1,22.8-1c8.2-1,16.1-3.2,24.2-4.9c9.4-1.9,18.6-2.7,28-0.4c7.8,1.9,15.4,5,23.6,4.8
	c8.3-0.2,16.1-3.8,23.5-7.1c8.1-3.6,16-7.7,23.7-12c7.6-4.3,14.8-9.2,22.3-13.7c6.1-3.7,13.8-8.5,21.3-7.8
	C308.9,341.8,308.9,343.6,308.9,345.3z M308.9,339.1c-5.7-0.8-11.5,2.1-16.3,4.7c-6.2,3.3-12,7.5-18,11.1c-2.2,1.3-4.4,2.6-6.7,3.9
	c-8.1,1.3-15.8,0.2-22.6-4.7c-6.2-4.5-11-10.7-16-16.5c-12.7-14.6-29.4-25.7-47.2-33.1c-9.7-4-19.9-6.5-30.1-9.3
	c-10.1-2.7-20.5-5.8-29.3-11.7c-8.9-5.9-15.6-14.3-21.9-22.8c-6-8-12-16.1-19-23.3c-15.5-16.2-34.9-29.8-55.9-37.7
	c-0.9-0.3-1.5,1.1-0.6,1.5c19.2,8.6,36.8,19.8,51.9,34.6c7.6,7.4,14,15.6,20.4,24c6.1,7.9,12.5,15.9,20.6,21.9
	c17,12.7,38.8,14.5,58.2,21.5c19.2,7,37.6,18.6,51.2,33.9c5.4,6.1,10.5,12.9,17.2,17.7c6.2,4.5,13.6,6.2,21,5
	c-4.8,2.7-9.6,5.3-14.5,7.7c-7.9,3.9-16.1,8-24.6,10.4c-9,2.5-17.2,0.7-26-1.9c-8.4-2.4-16.4-3.8-25.2-2.8c-8.9,1-17.4,3.5-26.2,5.1
	c-7.4,1.4-14.9,2-22.5,2.1c-17.7,0.2-34.7-3.1-51.8-7.5c-6.5-5.7-13.9-10.2-22.3-12.8c-8.8-2.8-18.8-3.4-27.2,0.9
	c-0.6-37.6-0.8-75.1-1.2-112.7c-0.3-36.7-1-73.8,6-110c6.6-33.9,20.7-65.9,45.3-90.6c24.2-24.3,56.3-40.4,90.5-43.9
	c1.1-0.1,2.2-0.2,3.3-0.3c26.6,2.1,52.5,11.5,74,27.6c26.8,20.2,44.6,50.3,54.4,82c5,16,8,32.6,9.4,49.3c1.6,19.6,1.4,39.4,1.6,59
	C309.6,260.9,309.4,300,308.9,339.1z M320.4,368.8c-0.5,38.4-1.1,76.7-1.3,115.1c0,4.2,0,8.4,0,12.6c-2.9,0-5.7,0-8.6,0
	c0-41.3,0.5-82.6,1-123.8c0.5-41.8,0.9-83.6,0.6-125.4c-0.1-20.9-0.4-41.9-1-62.8c-0.5-17.5-1.7-34.9-5.3-52.1
	c-6.8-32.3-20.7-63.9-43.4-88.2C243.5,24,218.8,10.2,192.1,3.9c4.5,0.3,9,0.9,13.4,1.7c-0.4,0.4-0.4,1.2,0.3,1.3
	c15.7,4.3,30.5,10.7,44,19.7c13.4,8.8,24.7,20.1,34.1,33.1c18.2,25.1,28.6,55.2,33.3,85.7c2.6,16.9,2.3,33.9,2.7,51
	c0.5,19.3,0.7,38.6,0.8,57.9C321,292.4,321,330.6,320.4,368.8z M331.3,345.3c-0.5,41-1.2,82-1.4,122.9c-0.1,9.6-0.1,19.1-0.1,28.7
	c-2.5-0.2-5-0.3-7.6-0.3c0-38.5,0.4-77,0.8-115.5c0.4-38.8,0.9-77.7,1.2-116.5c0.1-19.4-0.1-38.9-0.4-58.3
	c-0.3-17.9-0.7-35.8-2.9-53.6c-3.8-30.7-13.6-61-30.8-87C272.6,39.4,247.7,19,217.9,8.7c-2.1-0.7-4.3-1.4-6.5-2
	c19.7,4.2,38.5,12.6,54.8,24.8c26.8,20.2,44.6,50.3,54.4,82c5,16,8,32.6,9.4,49.3c1.6,19.6,1.4,39.4,1.6,59
	C332.1,263,331.8,304.1,331.3,345.3z"/>
</svg>
