<?xml version="1.0" encoding="utf-8"?>
<!-- Generator: Adobe Illustrator 21.0.1, SVG Export Plug-In . SVG Version: 6.00 Build 0)  -->
<svg version="1.1" id="Layer_1" xmlns="http://www.w3.org/2000/svg" xmlns:xlink="http://www.w3.org/1999/xlink" x="0px" y="0px"
	 viewBox="0 0 500 282.6" enable-background="new 0 0 500 282.6" xml:space="preserve">
<path fill="#E4E5DE" d="M121.3,68.9c-5,3.9-11,6.5-16.7,9.4c-6.3,3.2-12.4,6.7-18.9,9.3c-1.3,0.5-2.3-1.4-1.1-2.1
	c6-3.6,12.5-6.5,18.8-9.6c5.7-2.8,11.4-6,17.5-7.7C121.4,68.1,121.7,68.6,121.3,68.9z M65.8,8c7,0.5,14.1,0,21.1-0.1
	c6.3-0.1,12.9,0.1,19.1-1.2c0.5-0.1,0.5-0.7,0-0.8c-6.2-1.1-12.8-0.7-19.1-0.7c-7,0.1-14.1-0.2-21.1,0.5C64.3,5.7,64.4,7.9,65.8,8z
	 M114.3,6c5.7,0.5,11.6,0,17.3,0c5.8-0.1,11.6-0.2,17.3-0.6c1-0.1,1-0.9,0-0.9c-5.8-0.3-11.6-0.3-17.3-0.3c-5.7,0-11.7-0.4-17.3,0.2
	C112.9,4.5,113,5.9,114.3,6z M86.6,43c10.6-2.4,21.9-4.3,32.1-7.8c1.6-0.5,1.2-2.1-0.4-1.9c-10.2,1.2-20.6,4.2-30.6,6.4l-27.1,5.8
	c-20,4.2-40,8.3-59.8,12.9c-1.3,0.3-0.6,3.1,0.7,2.9c19.5-3.5,38.9-7.8,58.3-12.2L86.6,43z M143.9,87.6
	c-8.6,5.5-16.7,12.7-24.7,19.1l-21.9,17c-16.1,12.5-32.4,24.9-48.2,37.7c-1,0.8,0.8,3.1,1.8,2.3c16.1-11.7,31.7-23.9,47.2-36.3
	l21.5-17.3c8.4-6.8,17.8-13.4,25.5-21C146.3,88,145.3,86.7,143.9,87.6z M351.5,3.7C357.3,4,363.1,4,368.9,4c5.7,0,11.7,0.4,17.3-0.2
	c1.3-0.1,1.3-1.5,0-1.6c-5.7-0.5-11.6,0-17.3,0c-5.8,0.1-11.6,0.2-17.3,0.6C350.5,2.8,350.5,3.7,351.5,3.7z M394.5,2.4
	c6.2,1.1,12.8,0.7,19.1,0.7c7-0.1,14.1,0.2,21.1-0.5c1.4-0.1,1.4-2.3-0.1-2.4c-7-0.5-14.1,0-21.1,0.1c-6.3,0.1-12.9-0.1-19.1,1.2
	C394,1.7,394,2.3,394.5,2.4z M341.7,47.7c5.1,2.8,10.3,5.3,15.5,7.8c5.2,2.5,10.3,5.4,15.7,7.3c1.3,0.5,1.8-0.8,0.7-1.5
	c-4.9-2.9-10.4-5.1-15.6-7.5c-5.2-2.4-10.5-4.8-15.9-7C341.1,46.5,340.8,47.2,341.7,47.7z M127.8,63.3c-1.1,0.7-0.5,1.9,0.8,1.5
	c5.3-2,10.5-5,15.6-7.6c5.2-2.6,10.3-5.2,15.3-8.1c0.9-0.5,0.5-1.2-0.4-0.8c-5.3,2.2-10.5,4.7-15.8,7.3
	C138.2,58.1,132.6,60.3,127.8,63.3z M324.2,96.8c3.6,4.5,7,9.3,11,13.4c0.9,1,2,0.1,1.3-1c-3.1-4.7-7.2-9.1-10.9-13.5
	c-3.7-4.5-7.4-8.9-11.3-13.2c-0.7-0.8-1.3-0.3-0.7,0.6C317,87.7,320.6,92.3,324.2,96.8z M138.3,150.7c4.7-5.2,8.8-11,13-16.6
	c3.8-5,8.1-10,11-15.7c0.2-0.4-0.3-0.8-0.6-0.5c-4.8,4.1-8.6,9.5-12.4,14.5c-4.3,5.5-9,10.9-12.8,16.8
	C135.6,150.4,137.3,151.8,138.3,150.7z M167,111.6c3.9-4.1,7.3-9.1,10.8-13.6c3.5-4.6,7.1-9.2,10.4-13.9c0.6-0.8-0.1-1.3-0.7-0.6
	c-3.8,4.3-7.4,8.8-11.1,13.4c-3.6,4.5-7.6,8.9-10.6,13.7C165,111.7,166.1,112.6,167,111.6z M404.3,124.9l-21.6-17.2
	c-8.5-6.7-17-14.5-26.1-20.2c-1.4-0.9-2.4,0.4-1.2,1.6c7.3,7.2,16.1,13.4,24.1,19.9l21.4,17.6c15.8,13,31.4,26.1,47.4,38.7
	c1,0.8,2.8-1.5,1.8-2.3C435.2,149.8,419.8,137.3,404.3,124.9z M355,129.5c-4-4.9-8-10.2-12.9-14.1c-0.4-0.3-0.9,0.1-0.6,0.5
	c3,5.5,7.4,10.4,11.4,15.3c4.4,5.4,8.6,11.1,13.5,16.2c1,1,2.7-0.3,1.8-1.5C364.2,140.1,359.5,134.9,355,129.5z M499.3,60.3
	c-19.1-5.3-38.5-9.8-57.8-14.2l-27-6c-10.6-2.4-21.6-5.6-32.3-6.9c-1.6-0.2-2,1.4-0.4,1.9c9.7,3.3,20.4,5.1,30.3,7.4l27,6.5
	c19.8,4.8,39.6,9.8,59.6,14.2C499.9,63.5,500.6,60.7,499.3,60.3z M192.1,124.9c-0.4-0.2-1,0-1.4,0.6c-5.4,8.7-9.5,18.7-14,27.9
	l-12.4,24.8c-9.1,18.2-18.4,36.4-27.2,54.9c-0.6,1.2,2,2.5,2.7,1.3c9.5-17.5,18.2-35.3,26.8-53.2l11.9-24.9
	c4.7-9.8,10.3-19.8,13.9-29.9C192.8,125.6,192.6,125.1,192.1,124.9z M336.7,179.9L324.6,155c-4.7-9.7-9.1-20.4-14.8-29.5
	c-0.9-1.4-2.3-0.6-1.8,0.9c3.4,9.6,8.7,19.1,13.1,28.3l11.7,25.1c8.6,18.5,17,37.1,26,55.4c0.6,1.2,3.2,0,2.7-1.3
	C353.8,215.7,345.3,197.7,336.7,179.9z M397.9,74.1c6.3,3,12.6,6.3,19.2,8.7c1.4,0.5,2.2-1.5,1-2.2c-6.1-3.5-12.7-6.1-19-9
	c-5.7-2.6-11.6-5.7-17.7-7.2c-0.5-0.1-0.7,0.5-0.3,0.8C386.1,68.9,392.2,71.4,397.9,74.1z M219.7,145.1c-2.5,5.8-3.5,12.3-4.9,18.5
	c-1.5,6.9-3.3,13.7-4.2,20.7c-0.2,1.4,1.9,1.9,2.3,0.5c2-6.7,3.1-13.7,4.5-20.6c1.3-6.2,2.9-12.6,3-18.9
	C220.5,144.8,219.9,144.7,219.7,145.1z M228,102.9c-1.6,5.5-2.9,11.2-4.1,16.8c-1.3,5.6-2.9,11.3-3.6,17c-0.2,1.3,1.2,1.7,1.6,0.4
	c1.7-5.4,2.6-11.3,3.8-16.9c1.2-5.7,2.4-11.3,3.3-17C229,102.1,228.2,101.9,228,102.9z M278.5,119.3c-1.4-5.6-2.8-11.2-4.4-16.8
	c-0.3-1-1.1-0.8-0.9,0.2c1,5.7,2.3,11.3,3.5,17c1.3,5.6,2.2,11.4,4.1,16.8c0.4,1.3,1.8,1,1.6-0.4
	C281.6,130.6,279.9,124.9,278.5,119.3z M284.8,144.2c-0.2-0.5-0.8-0.3-0.8,0.2c0.3,6.3,2.1,12.6,3.6,18.8c1.6,6.8,2.9,13.8,5.1,20.4
	c0.5,1.4,2.5,0.9,2.3-0.5c-1.1-6.9-3.1-13.7-4.8-20.5C288.7,156.4,287.5,149.9,284.8,144.2z M251.3,139.3c-0.2-1.6-1.8-1.6-2,0
	c-1.1,10.1-0.4,21-0.5,31.2l-0.4,27.7c-0.3,20.4-1.3,63-1.1,83.4c0,1.3,2.9,1.4,3,0c0.9-19.9,1.6-61.9,1.6-81.7l-0.1-27.6
	C251.7,161.5,252.4,150,251.3,139.3z"/>
</svg>
