<?xml version="1.0" encoding="utf-8"?>
<!-- Generator: Adobe Illustrator 21.0.1, SVG Export Plug-In . SVG Version: 6.00 Build 0)  -->
<svg version="1.1" id="Layer_1" xmlns="http://www.w3.org/2000/svg" xmlns:xlink="http://www.w3.org/1999/xlink" x="0px" y="0px"
	 viewBox="0 0 407.9 500" enable-background="new 0 0 407.9 500" xml:space="preserve">
<path fill="#E4E5DE" d="M404.2,236c-4.2-43.5-12.7-79.5-26.1-110.1c-14.7-33.6-37.5-63.3-66-85.9c-28.4-22.5-60.5-36.1-93-39.4
	c-30.6-3.1-63.1,4.8-96.6,23.6C89.9,42.6,62.8,66.9,43.9,94.7c-19,28-31.6,63.7-37.3,106.1c-3.1,22.7-4.4,45.2-5.4,64.1
	c-1,20.8-1.4,42.5-1.2,64.7c0.3,21.1,0.9,42.5,1.5,63.2c0.7,23.7,1.4,48.1,1.6,72.2c0,3.2-0.1,7.4-0.2,11.8
	c-0.4,18.9-0.2,22.7,1.4,22.8c7.9,0.3,15.8,0.4,23.6,0.4c2.6,0,5.2,0,7.7,0c2.3,0,4.7,0,7,0l38.7,0c26,0,51.9-0.1,77.9-0.1
	c22.3,0,44.5-0.1,66.8-0.1l11.1,0c25.8,0,51.6-0.2,78-0.3c15.7-0.1,43.6-0.1,64-0.1c10.9,0,19.5,0,22.7,0l3,0l0-0.6
	c0-0.9,2.5-90.9,2.8-135.2C408.1,318,408.1,276.9,404.2,236z M402.1,466c-0.2,8.6-0.6,24.7-0.7,30.5c-9.7-0.2-19.7-0.2-29.7-0.2
	c-6.2,0-12.4,0-18.5,0c-9.4,0-19.1,0.1-28.4,0l-8.9,0c-22.6-0.1-46-0.2-69-0.2h-9.7c-22.7,0-45.4,0-68.2,0l-78,0
	c-7.4,0-14.7,0-22.1,0c-18.1,0-36.7-0.1-55.1,0.2c-2.5,0-5,0.1-7.5,0.2c0.2-43.7-0.8-87.4-2-132.1c-1.4-51.3-0.6-90.9,2.5-128.5
	c1.5-18.1,3.5-39.1,8-59.7c4.3-19.7,10.3-37.8,17.8-53.8C46.8,91.9,70,64.9,101.5,42.2C133.5,19,165.2,6,195.6,3.6
	c30.8-2.5,64.7,6.6,95.4,25.6c29.8,18.4,55.9,45.7,73.6,77c16.3,28.8,27.2,63.4,33.3,105.7c5.7,39.6,6.3,80.2,6.5,121.8
	C404.5,376,403.5,417,402.1,466z"/>
</svg>
