<?xml version="1.0" encoding="utf-8"?>
<!-- Generator: Adobe Illustrator 21.0.1, SVG Export Plug-In . SVG Version: 6.00 Build 0)  -->
<svg version="1.1" id="Layer_1" xmlns="http://www.w3.org/2000/svg" xmlns:xlink="http://www.w3.org/1999/xlink" x="0px" y="0px"
	 viewBox="0 0 312.2 500" enable-background="new 0 0 312.2 500" xml:space="preserve">
<path fill="#E4E5DE" d="M312.1,247.4c-0.1-20.9-0.4-41.9-1-62.8c-0.5-17.5-1.7-34.9-5.3-52.1c-6.8-32.3-20.7-63.9-43.4-88.2
	c-23.8-25.6-57.1-41-91.9-43.8c-35.2-2.9-71.3,7.2-99.7,28.3c-26.8,19.9-46.6,48.2-57.4,79.7C1.6,143.2,0,180.5,0,217
	c0.1,40.9,1,81.8,1.6,122.7c0.2,14.6,0.4,29.1,0.5,43.7c-0.1,0.2-0.1,0.4,0,0.5C2.4,411,2,487.5,2.2,498.2c0,0,0,0.1,0,0.1
	c0,0,0,0,0,0c0,0,0,0,0,0c0,0.5,0.4,0.9,1,1c19.9,1.2,40.1,0.6,60.1,0.6c20,0,40,0,60.1,0c40,0,80.1,0,120.1,0c11.1,0,22.1,0,33.2,0
	c10.4,0,32.9,0,33.4-0.6c0.3,0,0.5,0,0.8-0.1c1.2-0.1,0.1-84.9,0.6-126.4C312,331,312.4,289.2,312.1,247.4z M37.4,496.6
	c-10.8,0-21.6-0.1-32.4,0.4c-0.2-37-0.8-76-1.4-112.9c10.4-0.7,20.7-2.3,30.9-3.9c10.2-1.6,20.3-3.6,30.3-5.9
	c19.7-4.6,39-10.9,57.6-18.9c20.5-8.8,40.4-22.6,63.7-18.1c2.7,0.5,5.3,1.2,7.8,2c-7.7-0.2-15.1,2.3-20.5,8.7
	c-4.4,5.3-7,11.8-9.5,18.1c-2.9,7.5-5.5,15.2-8.9,22.5c-3.4,7.2-7.6,14-13.6,19.4c-6.1,5.5-13.5,9.4-20.6,13.4
	c-14.7,8.2-27.8,18.5-39.7,30.4c-7,6.9-13.5,14.2-19.5,22c-5.4,7-11.2,14.6-15,22.7C43.5,496.6,40.5,496.6,37.4,496.6z M307.5,468.3
	c-0.1,9.6-0.1,18.2-0.1,27.8c-9.6,0.6-17.9,0.6-26.8,0.6c-9.9,0-19.9,0-29.8,0c-20,0-40,0-60.1,0c-40,0-80.1,0-120.1,0
	c-7.1,0-14.3,0-21.4,0c4.1-6.2,7.9-12.6,12.3-18.6c5.2-6.9,10.8-13.5,16.7-19.7c11.4-12,24.2-23.4,38.5-31.7
	c6.8-3.9,13.8-7.4,20.2-11.9c6.1-4.3,11.3-9.6,15.3-16c8.1-13,11.2-28.2,17.9-41.8c3-6,7.2-11.6,13.6-14.3c4.5-1.9,9.5-2,14.4-1.7
	c14.4,5.8,27,15.9,40,24.2c10.2,6.6,20.9,11.9,32.9,14.4c12.3,2.6,25,3.2,37.2,6.3C308,413.3,307.7,440.8,307.5,468.3z M308.9,345.3
	c-0.2,12.8-0.3,25.7-0.5,38.5c-10.7-3-21.8-3.6-32.7-5.5c-11.4-2-21.7-6.1-31.6-12.1c-13.4-8-25.7-18.3-39.7-25c0,0,0,0,0,0
	c0,0,0,0-0.1,0c-3.7-1.8-7.4-3.3-11.4-4.5c-9.9-3-20.2-3.3-30.3-0.8c-10.9,2.7-20.6,8.1-30.7,12.9c-19,8.9-38.8,16.1-59.1,21.3
	c-11.2,2.9-22.5,5.3-33.9,7.3c-11.7,2.1-23.6,3.5-35.3,5.5c-0.1-3.6-0.1-7.2-0.2-10.8c-0.7-41.1-1-82.3-1.3-123.5
	c-0.3-36.7-1-73.8,6-110c6.6-33.9,20.7-65.9,45.3-90.7C77.6,23.8,109.7,7.7,144,4.2c35.3-3.6,71.4,6,99.8,27.3
	c26.8,20.2,44.6,50.3,54.4,82c5,16,8,32.6,9.4,49.3c1.6,19.6,1.4,39.4,1.6,59C309.7,263,309.4,304.2,308.9,345.3z"/>
</svg>
