<?xml version="1.0" encoding="utf-8"?>
<!-- Generator: Adobe Illustrator 21.0.1, SVG Export Plug-In . SVG Version: 6.00 Build 0)  -->
<svg version="1.1" id="Layer_1" xmlns="http://www.w3.org/2000/svg" xmlns:xlink="http://www.w3.org/1999/xlink" x="0px" y="0px"
	 viewBox="0 0 312.5 500" enable-background="new 0 0 312.5 500" xml:space="preserve">
<path fill="#E4E5DE" d="M312.5,247.5c-0.1-20.9-0.4-41.9-1-62.8c-0.5-17.5-1.7-34.9-5.3-52.1c-6.8-32.3-20.7-63.9-43.4-88.3
	c-23.8-25.6-57.1-41-91.9-43.8c-35.2-2.9-71.3,7.2-99.7,28.3c-26.8,20-46.6,48.2-57.4,79.7C1.8,143.3,0.2,180.6,0.2,217.1
	c0,2.7,0,5.4,0,8.1c0,3.7,0,7.3,0,11c0,4.5,0,9,0,13.5c0,5.2,0,10.5,0,15.7c0,5.8,0,11.7,0,17.5c0,6.3,0,12.6,0,18.9
	c0,6.6,0,13.3,0,19.9c0,6.8,0,13.7,0,20.5c0,6.9,0,13.8,0,20.7c0,6.9,0,13.7,0,20.6c0,6.7,0,13.4,0.1,20.1c0,6.4,0.1,12.8,0.1,19.2
	c0,6,0.1,11.9,0.2,17.9c0.1,5.4,0.1,10.8,0.2,16.2c0.1,4.7,0.2,9.4,0.3,14.1c0.1,3.9,0.2,7.8,0.4,11.7c0.1,2.9,0.2,5.9,0.4,8.8
	c0.1,1.9,0.2,3.7,0.5,5.6c0.1,0.8,0.2,1.8,0.9,2.3c0.9,0.6,2.8,0.4,3.8,0.4c2.9,0.1,5.9,0.2,8.8,0.3c5.9,0.1,11.8,0.1,17.7,0.1
	c10,0,20.1,0,30.1,0c20.1,0,40.1,0,60.2,0c39.9,0,79.8,0,119.8,0c11.3,0,22.5,0,33.8,0c10.2,0,32.5,0,33.1-0.6c0.2,0,0.5-2,0.4-2
	c0-41.5,0.5-83,1-124.5C312.3,331.1,312.7,289.3,312.5,247.5z M309.1,345.4c-0.5,41-1.2,82-1.5,123c-0.1,9.5-0.1,19.1-0.1,28.6
	c-8.8-0.7-17.7-0.3-26.5-0.3l-30.1,0c-20.1,0-40.1,0-60.2,0c-39.9,0-79.8,0-119.8,0c-11.3,0-22.5,0-33.8,0
	c-10.7,0-21.4-0.1-32.1,0.5c-0.2-41-0.8-84-1.5-124.9c-0.7-41.2-1-82.3-1.3-123.5c-0.3-36.7-1-73.8,6-110
	c6.6-33.9,20.7-65.9,45.3-90.6C77.9,23.9,110,7.8,144.2,4.3c35.3-3.6,71.4,6,99.8,27.3c26.8,20.2,44.6,50.3,54.4,82
	c5,16,8,32.6,9.4,49.3c1.6,19.6,1.4,39.4,1.6,59C309.9,263.1,309.6,304.3,309.1,345.4z"/>
</svg>
