<?xml version="1.0" encoding="UTF-8"?>
<svg id="Capa_2" xmlns="http://www.w3.org/2000/svg" xmlns:xlink="http://www.w3.org/1999/xlink"
  viewBox="0 0 147.19 149.5">
  <defs>
    <style>
      .cls-1 {
        fill: url(#Nueva_muestra_de_degradado_3);
        stroke: url(#Nueva_muestra_de_degradado_3-2);
      }

      .cls-1,
      .cls-2,
      .cls-3 {
        stroke-miterlimit: 10;
      }

      .cls-2 {
        stroke: url(#Nueva_muestra_de_degradado_3-4);
      }

      .cls-2,
      .cls-3 {
        fill: none;
      }

      .cls-3 {
        stroke: url(#Nueva_muestra_de_degradado_3-3);
      }
    </style>
    <linearGradient id="Nueva_muestra_de_degradado_3" x1="2.38" y1="73.6" x2="144.81" y2="73.6"
      gradientUnits="userSpaceOnUse">
      <stop offset="0" stop-color="#e7bcad" />
      <stop offset=".2" stop-color="#b9728a" />
      <stop offset=".41" stop-color="#f1d1d4" />
      <stop offset=".47" stop-color="#ebc5c9" />
      <stop offset=".56" stop-color="#dda5ad" />
      <stop offset=".63" stop-color="#d28c96" />
      <stop offset=".79" stop-color="#b2647f" />
      <stop offset="1" stop-color="#c28499" />
    </linearGradient>
    <linearGradient id="Nueva_muestra_de_degradado_3-2" x1="0" y1="73.6" x2="147.19" y2="73.6"
      xlink:href="#Nueva_muestra_de_degradado_3" />
    <linearGradient id="Nueva_muestra_de_degradado_3-3" x1="104.27" y1="128.04" x2="147.19" y2="128.04"
      xlink:href="#Nueva_muestra_de_degradado_3" />
    <linearGradient id="Nueva_muestra_de_degradado_3-4" x1="2.29" y1="32.69" x2="45.21" y2="32.69"
      xlink:href="#Nueva_muestra_de_degradado_3" />
  </defs>
  <g id="BACKGROUND">
    <polygon class="cls-1"
      points="61 61.01 73.59 2.38 86.18 61.01 144.81 73.6 86.18 86.19 73.59 144.83 61 86.19 2.38 73.6 61 61.01" />
    <polygon class="cls-3"
      points="122.35 124.66 125.73 108.96 129.1 124.66 144.81 128.04 129.1 131.41 125.73 147.12 122.35 131.41 106.65 128.04 122.35 124.66" />
    <polygon class="cls-2"
      points="20.38 29.32 23.75 13.61 27.12 29.32 42.83 32.69 27.12 36.06 23.75 51.77 20.38 36.06 4.67 32.69 20.38 29.32" />
  </g>
</svg>